<?xml version="1.0" encoding="UTF-8" standalone="no"?>
<svg
   viewBox="-25 -25 50 50"
   version="1.1"
   xmlns="http://www.w3.org/2000/svg">
  <rect
     width="50"
     height="50"
     fill="#20273c"
     id="rect1"
     x="-25"
     y="-25" />
  <path
     fill="#ffffff"
     d="m 16.695,-10.298671 c -5.42,-5.76 -13.13,-6.66 -19.42,-3.89 -3.61,-1.16 -7.67,-0.7 -10.97,1.23 -8.27,4.9200003 -9.4,16.2600003 -3,23.26 5.41,5.76 13.12,6.66 19.42,3.88 3.61,1.16 7.67,0.7 10.97,-1.23 8.27,-4.9199997 9.4,-16.2599997 3,-23.26 z m -0.74,15.7600003 c -1.16,4.5799997 -5.34,8.0599997 -10.03,8.6299997 -0.98,0.12 -1.99,0.11 -3,0 4.31,-1.96 7.93,-5.6499997 9.66,-10.6799997 1.48,-3.47999996 -0.86,-7.62 -4.63,-8.08 -3.22,-0.44 -6.18,1.81 -6.62,5.02 -0.17,1.48 -0.74,2.88 -1.71,4.05 -2.9,3.46 -8.21,3.78 -11.79,1.12 -3.37,-2.43 -4.84,-6.97 -3.77,-11 1.16,-4.5800003 5.34,-8.0600003 10.03,-8.6300003 0.98,-0.12 1.99,-0.11 3,0 -4.31,1.96 -7.93,5.6500003 -9.66,10.6800003 -1.48,3.48 0.86,7.62 4.63,8.08 3.22,0.44 6.18,-1.81 6.62,-5.01999996 0.17,-1.48000004 0.74,-2.88000004 1.71,-4.05000004 2.9,-3.46 8.2,-3.78 11.79,-1.12 3.37,2.43 4.84,6.97 3.77,11 z"/>
</svg>
